# xmcd CD database file generated by MAGIX_Freedb v0.9beta0
# 
# Track frame offsets:
#      225
#      12752
#      24829
#      38743
#      54068
#      67777
#      83570
#      98037
#      111333
#      126787
#      141450
#      157276
#      173287
# 
# Disc length: 2508 seconds
# 
# Revision: 0 
# Processed by: cddbd v1.4PL0 Copyright (c) Steve Scherf et al.
# Submitted via: MAGIX_Freedb v0.9beta0
# 
DISCID=9509c90d
DTITLE=Die Almzigeuner - Himma Uana
DYEAR=1900
DGENRE=
TTITLE0=Die Almzigeuner - Himma Uana
TTITLE1=Die Almzigeuner - Wir san Zigeuner
TTITLE2=Die Almzigeuner - Goassbeitlbauernbuam
TTITLE3=Die Almzigeuner - Kennst den Fleck am Glockner
TTITLE4=Die Almzigeuner - Hörst du den Ruf
TTITLE5=Die Almzigeuner - Dem Herrgott donk I
TTITLE6=Die Almzigeuner - Almzigeunerbuam
TTITLE7=Die Almzigeuner - Hoamat'sjodler
TTITLE8=Die Almzigeuner - Moch ma a Musi
TTITLE9=Die Almzigeuner - In den Augen eines Kindes
TTITLE10=Die Almzigeuner - Du bist vom Schicksal...
TTITLE11=Die Almzigeuner - Nur du allein
TTITLE12=Die Almzigeuner - So manche Zeit
EXTD=
EXTT0=
EXTT1=
EXTT2=
EXTT3=
EXTT4=
EXTT5=
EXTT6=
EXTT7=
EXTT8=
EXTT9=
EXTT10=
EXTT11=
EXTT12=
PLAYORDER=
